<svg id="svg" version="1.1" viewBox="0 0 300 300" width="300" height="300" xmlns="http://www.w3.org/2000/svg"><svg xmlns="http://www.w3.org/2000/svg"><defs><clipPath id="clip-1"><rect x="0" y="0" transform="scale(0.14648,0.14648)" width="2048" height="2048" fill="none"/></clipPath><linearGradient x1="48.98291" y1="14.6396" x2="265.91895" y2="123.3731" gradientUnits="userSpaceOnUse" id="color-1"><stop offset="0" stop-color="#de750d"/><stop offset="1" stop-color="#ff9419"/></linearGradient><linearGradient x1="138.82617" y1="249.25928" x2="180.11426" y2="113.23389" gradientUnits="userSpaceOnUse" id="color-2"><stop offset="0" stop-color="#dc7309"/><stop offset="1" stop-color="#ff951b"/></linearGradient></defs><g clip-path="url(#clip-1)" fill="none" fill-rule="nonzero" stroke="none" stroke-width="1" stroke-linecap="butt" stroke-linejoin="miter" stroke-miterlimit="10" stroke-dasharray="" stroke-dashoffset="0" font-family="none" font-weight="none" font-size="none" text-anchor="none" style="mix-blend-mode: normal"><path d="M21.63647,57.59033c0.46187,-0.2521 1.56855,-0.25708 2.11333,-0.25767c9.66182,-0.00981 19.33315,0.00059 28.99395,-0.00293l60.02388,-0.0063l186.49849,-0.01025l0.09814,0.17578c-1.68604,2.07378 -4.08545,4.34839 -6.01465,6.28491l-9.7793,9.79028l-11.74512,11.75186c-2.10937,2.11406 -4.23486,4.28145 -6.39551,6.34409c-0.47021,0.45 -1.14697,1.05205 -1.77539,1.08896c-2.13135,0.12524 -4.40771,0.06738 -6.54785,0.05786l-11.55762,-0.01143l-40.52197,0.00264l-137.03965,-0.01216c-2.97407,-0.00088 -27.63984,-0.17065 -28.29272,0.10356c-0.31611,-0.16978 -3.74839,-6.76992 -4.03125,-7.49106c-1.93286,-3.44956 -13.2063,-27.15703 -14.02676,-27.80815z" fill="url(#color-1)"/><path d="M21.63647,57.59033c0.46187,-0.2521 1.56855,-0.25708 2.11333,-0.25767c9.66182,-0.00981 19.33315,0.00059 28.99395,-0.00293l60.02388,-0.0063l186.49849,-0.01025l0.09814,0.17578l-180.69668,0.00117l-60.91611,0.08232l-18.51562,0.21196c-3.34658,0.01421 -8.54473,-0.16611 -11.73252,0.06006c-0.31128,0.74663 -0.09272,2.41729 -0.19805,3.35801c-0.20889,1.86504 -1.49927,2.78335 -0.85298,4.47451c2.57285,6.73081 6.28945,13.06875 9.31377,19.55215l-0.10283,0.16934c-1.93286,-3.44956 -13.2063,-27.15703 -14.02676,-27.80815z" fill="#c06200"/><path d="M21.63647,57.59033c0.82046,0.65112 12.0939,24.35859 14.02676,27.80815c0.28286,0.72114 3.71514,7.32129 4.03125,7.49106c1.42251,2.33394 2.67803,5.01973 3.90571,7.47847l5.56348,11.13779l17.98872,35.95854l20.19492,40.38428l6.45732,12.91406c1.31851,2.63672 2.88633,5.58398 4.00752,8.27051c0.05742,0.89209 2.3001,5.23242 2.83374,6.31494l9.12817,18.1875c0.8603,1.72119 1.74067,3.42188 2.63027,5.12842c0.3542,0.67969 1.54336,2.74951 1.22461,3.38379l-0.43271,0.17432c-2.52451,-0.32666 -5.07202,-0.79687 -7.59097,-1.18213c-11.30771,-1.72412 -22.60781,-3.8335 -33.92095,-5.48437c-1.78359,-2.58838 -4.37783,-8.19873 -5.85,-11.15479l-10.03022,-20.09473l-38.28384,-76.28833l-12.19056,-24.35479c-1.16728,-2.32354 -2.32285,-4.65293 -3.46667,-6.98818c-0.47133,-0.95713 -1.32091,-2.81294 -1.86303,-3.65874v-0.68716c0.29108,-0.38086 1.18,-1.95894 1.48793,-2.46475l3.51171,-5.73135l11.45626,-18.50728c0.97661,-1.5895 4.11606,-6.92783 5.18057,-8.03525z" fill="#fe8c16"/><path d="M179.09033,127.68516c2.09912,-0.15264 4.77393,-0.07603 6.92139,-0.0731l10.76074,0.00352l32.53711,-0.00059c-2.34521,2.67861 -5.51367,5.72036 -8.06836,8.27871l-13.10742,13.11606l-47.51074,47.26172l-32.27065,32.25879l-8.96997,8.98242c-1.23076,1.23193 -3.73066,3.86279 -4.98486,4.84424c-0.48735,-0.01611 -0.71763,-0.05273 -1.20132,-0.13477l0.43271,-0.17432c0.31875,-0.63428 -0.87041,-2.7041 -1.22461,-3.38379c-0.8896,-1.70654 -1.76997,-3.40723 -2.63027,-5.12842l-9.12817,-18.1875c-0.53364,-1.08252 -2.77632,-5.42285 -2.83374,-6.31494c2.66968,-3.17285 5.25967,-5.6792 8.18335,-8.61914l10.78594,-10.80762l34.04033,-34.05615l18.78955,-18.79409c1.70654,-1.70757 7.70801,-7.92187 9.479,-9.07104z" fill="url(#color-2)"/></g></svg></svg>